<svg width="32" height="32" viewBox="0 0 32 32" fill="none" xmlns="http://www.w3.org/2000/svg">
  <rect width="32" height="32" rx="6" fill="#0F172A"/>
  <!-- Stripes -->
  <rect x="2" y="4" width="8" height="2" rx="1" fill="#38BDF8" opacity="0.2"/>
  <rect x="2" y="7.5" width="11" height="2" rx="1" fill="#38BDF8" opacity="0.35"/>
  <rect x="2" y="11" width="7" height="2" rx="1" fill="#38BDF8" opacity="0.2"/>
  <rect x="2" y="14.5" width="10" height="2" rx="1" fill="#38BDF8" opacity="0.35"/>
  <rect x="2" y="18" width="8" height="2" rx="1" fill="#38BDF8" opacity="0.2"/>
  <rect x="2" y="21.5" width="10" height="2" rx="1" fill="#38BDF8" opacity="0.35"/>
  <!-- Curve -->
  <path d="M14 3 Q18 16 18 16 Q18 16 14 28" stroke="#2563EB" stroke-width="1" opacity="0.4" fill="none"/>
  <!-- Block -->
  <rect x="20" y="7" width="10" height="11" rx="3" fill="#FFFFFF"/>
  <!-- Inner stripes -->
  <rect x="22.5" y="9.5" width="5" height="1.5" rx="0.75" fill="#2563EB"/>
  <rect x="22.5" y="12.5" width="3.5" height="1.5" rx="0.75" fill="#2563EB" opacity="0.5"/>
  <rect x="22.5" y="15.5" width="5" height="1.5" rx="0.75" fill="#2563EB"/>
</svg>
